<?xml version="1.0" encoding="UTF-8" standalone="no"?>
<svg
   xmlns="http://www.w3.org/2000/svg"
   height="44"
   width="29">
  <path
     d="m 0.9,8.8 c -0.1,1.1 -0.1,2.2 0.2,3.4 0.4,1.6 1.2,3.1 2,4.3 1.3,1.7 2.9,3.2 4.5,4.3 1.4,1.1 2.8,1.8 4.1,2.7 -3.5,6 -7.6,13.3 -10.9,19.1 l 3.9,0 c 3.3,-5.7 6.9,-12.3 9.9,-17.3 1.2,0.6 2.3,1.5 3.3,2.3 1.1,0.9 1.9,1.8 2.8,2.8 0.9,1.1 1.5,2.3 2.1,3.5 0.7,1.9 1.1,4.2 -0.5,6 -1,0.9 -2,1 -3,0.7 -1.1,-0.3 -1.8,-1.1 -2.1,-1.9 0.1,-0.4 0.8,-0.4 1.3,-1.2 0.7,-1.1 1,-2.2 0.8,-3.5 -0.2,-1.2 -0.8,-2.1 -1.7,-2.8 -0.6,-0.4 -1.3,-0.4 -1.9,-0.4 -0.6,-0.1 -1.4,0.1 -1.8,0.3 -0.5,0.3 -0.9,0.8 -1.2,1.4 -0.3,0.6 -0.4,1.4 -0.4,2.2 0.1,1.3 0.4,2.5 1,3.7 0.6,1.1 1.4,2 2.5,2.8 1.6,1.1 3.3,1.5 5.1,1.4 1.8,-0.2 3.4,-0.9 4.8,-2.3 C 27.1,38.8 28,37 28.2,34.9 28.3,33.8 28.3,32.7 28,31.5 27.8,30.6 27.5,29.8 27.2,29.1 26.7,27.6 25.3,26.2 24.3,25.2 23.5,24.4 22.6,23.6 21.5,22.8 20.1,21.7 18.7,21 17.4,20.1 20.9,14.1 25,6.8 28.3,1 L 24.4,1 C 21.2,6.6 17.4,13.2 14.5,18.3 13.4,17.9 12.1,16.8 11.1,16 10,15.1 9.1,14.3 8.3,13.2 7.4,12.1 6.8,11.1 6.2,9.7 5.9,8.9 5.7,8.1 5.6,7.2 5.4,5.7 5.7,4.7 6.7,3.6 c 1,-0.9 1.8,-1 3,-0.7 1.1,0.3 1.8,1 2.1,1.9 -0.4,0.5 -1,0.6 -1.3,1.2 -0.7,1.1 -1,2.2 -0.8,3.5 0.2,1.2 0.8,2.1 1.7,2.8 0.6,0.4 1.3,0.4 1.9,0.4 0.8,0 1.2,-0.1 1.8,-0.3 C 15.6,12.1 16,11.6 16.3,11 16.6,10.4 16.7,9.6 16.7,8.7 16.6,7.4 16.3,6.2 15.7,5.1 15.1,4 14.3,3.1 13.2,2.3 12.5,1.8 11.7,1.5 11,1.3 9.9,1 8.7,1 7.6,1.1 6.9,1.2 6.1,1.4 5.3,1.8 4.5,2.2 4,2.7 3.3,3.4 1.9,4.9 1.1,6.9 0.9,8.8 Z m 20.7,8.9 c 0,0.7 0.4,1.5 1.1,1.8 0.6,0.3 1.4,0.1 2,-0.2 0.5,-0.4 0.7,-1 0.7,-1.5 0,-1 -0.6,-1.7 -1.4,-1.9 -0.5,-0.1 -1.2,0 -1.75,0.4 -0.55,0.4 -0.55,0.9 -0.65,1.4 z M 4.2,27 c 0.3,0.5 0.9,0.9 1.7,1 0.8,0.1 1.4,-0.4 1.7,-1.1 C 8,26.2 7.8,25.3 7.3,24.7 6.8,24 6,24 5.2,24.2 4.6,24.3 4.3,24.8 4.05,25.35 3.8,25.9 3.9,26.5 4.2,27 Z"
     style="fill:#000000;fill-opacity:1" />
</svg>
